# xmcd
#
# Track frame offsets: 
#        150
#        20480
#        33811
#        51043
#        69891
#        86896
#        102092
#        122478
#        145333
#        170593
#        187023
#        202448
#        219156
#        230198
#        243877
#        255529
#        268210
#
# Disc length: 3737 seconds
#
# Revision: 0
# Processed by: cddbd v1.5.2PL0 Copyright (c) Steve Scherf et al.
# Submitted via: ExactAudioCopy v1.0b1
#
DISCID=f70e9711
DTITLE=Various Artist - Best Of Blues and Roots 2011_CD2
DYEAR=2011
DGENRE=
TTITLE0=Lisa Mitchell - Oh! Hark! 
TTITLE1=Josh Pyke - Make You Happy
TTITLE2=Old Man River - Norway (I Like It Like This) 
TTITLE3=Ben Kweller - Sawdust Man 
TTITLE4=Gin Wigmore - Too Late For Lovers
TTITLE5=Paul Kelly - Leaps and Bounds
TTITLE6=Dan Mangan - Road Regrets
TTITLE7=Paul Dempsey - We'll Never Work In This Town Again
TTITLE8=Jason Lowe - Stone
TTITLE9=Sime Nugent - Only One Water
TTITLE10=Karl Broadie - Once In Your Life
TTITLE11=Dan Kelly - Hold On (I’m Coming On) 
TTITLE12=Elliott Brood - T-Bill
TTITLE13=Danny Widdicombe - Cannonball
TTITLE14=Joe Robinson - Strutting It
TTITLE15=The Wilson Pickers - Messin' Round
TTITLE16=Ian Simpson and John Kane - Foggy Mountain
EXTD=
EXTT0=
EXTT1=
EXTT2=
EXTT3=
EXTT4=
EXTT5=
EXTT6=
EXTT7=
EXTT8=
EXTT9=
EXTT10=
EXTT11=
EXTT12=
EXTT13=
EXTT14=
EXTT15=
EXTT16=
PLAYORDER=
